# xmcd CD database file
#
# Track frame offsets:
#	150
#	13342
#	25555
#	38142
#	50965
#	63670
#	75897
#	88707
#	101169
#	113619
#	126004
#	138614
#	150984
#	162657
#	175724
#	188282
#	201214
#	214147
#
# Disc length: 3023 seconds
#
# Revision: 0
# Processed by: cddbd v1.5.2PL0 Copyright (c) Steve Scherf et al.
# Submitted via: CDex 1.77
#
DISCID=ed0bcd12
DTITLE=Hank Williams - I saw the light
DYEAR=1946
DGENRE=Country
TTITLE0=Calling you
TTITLE1=Never again (will I knock on your door)
TTITLE2=Wealth won't save your soul
TTITLE3=When God comes and gathers his jewels
TTITLE4=I don't care (if tomorrow never comes)
TTITLE5=My love for you (has turned to hate)
TTITLE6=Pan American
TTITLE7=Move it on over
TTITLE8=I saw the light
TTITLE9=(Last night) I heard you crying in your sleep
TTITLE10=Six more miles (to the graveyard)
TTITLE11=Fix trouble
TTITLE12=I'm satisfied with you
TTITLE13=On the banks of the old pontchartrain
TTITLE14=Rootie Tootie
TTITLE15=I can't geg you off my mind
TTITLE16=I'm a long gone daddy
TTITLE17=Honky Tonkin'
EXTD=YEAR: 1946
EXTT0=
EXTT1=
EXTT2=
EXTT3=
EXTT4=
EXTT5=
EXTT6=
EXTT7=
EXTT8=
EXTT9=
EXTT10=
EXTT11=
EXTT12=
EXTT13=
EXTT14=
EXTT15=
EXTT16=
EXTT17=
PLAYORDER=
